<?xml version="1.0" encoding="utf-8"?>
<!-- Generator: Adobe Illustrator 16.0.0, SVG Export Plug-In . SVG Version: 6.00 Build 0)  -->
<!DOCTYPE svg PUBLIC "-//W3C//DTD SVG 1.1//EN" "http://www.w3.org/Graphics/SVG/1.1/DTD/svg11.dtd">
<svg version="1.1" id="Layer_1" xmlns="http://www.w3.org/2000/svg" xmlns:xlink="http://www.w3.org/1999/xlink" x="0px" y="0px"
	 width="512px" height="512px" viewBox="0 0 512 512" enable-background="new 0 0 512 512" xml:space="preserve">
<text transform="matrix(1 0 0 1 168.783 543.8093)" fill="#FFFF00" font-family="'Verdana-Bold'" font-size="20">simpleicon.com</text>
<text transform="matrix(1 0 0 1 9.1931 567.8093)" fill="#FFFF00" font-family="'Verdana'" font-size="20">Collection Of Flat Icon, Symbols And Glyph Icons</text>
<g>
	<path d="M338.742,99.489c-65.959-65.976-173.293-65.976-239.262,0c-65.974,65.959-65.974,173.298,0,239.262
		c63.706,63.705,165.986,65.873,232.336,6.538l13.413,13.418c-3.34,8.549-1.589,18.623,5.315,25.528l70.777,70.776
		c9.304,9.31,24.396,9.31,33.695,0c9.31-9.299,9.31-24.387,0-33.701l-70.771-70.762c-6.91-6.915-16.988-8.665-25.538-5.32
		l-13.413-13.418C404.64,265.464,402.452,163.184,338.742,99.489z M119.698,318.538c-54.819-54.813-54.819-144.02,0-198.839
		c54.814-54.819,144.018-54.819,198.836,0c54.819,54.819,54.819,144.025,0,198.839C263.716,373.351,174.512,373.351,119.698,318.538
		z"/>
	<path d="M275.076,126.973c-30.899-30.899-80.82-30.65-111.725,0.247c-30.899,30.897-31.111,80.936-0.211,111.828l55.819,55.515
		l55.94-55.948C305.8,207.713,305.971,157.871,275.076,126.973z M219.166,230.171c-26.288,0-47.597-21.312-47.597-47.594
		c0-26.293,21.309-47.602,47.597-47.602c26.293,0,47.603,21.314,47.603,47.602C266.769,208.855,245.465,230.171,219.166,230.171z"/>
	<path d="M218.266,310.023c19.835,0,38.554,4.315,55.166,11.96c-12.955-14.515-32.997-23.879-55.558-23.879
		c-22.878,0-43.166,9.636-56.086,24.502C178.731,314.58,197.918,310.023,218.266,310.023z"/>
</g>
</svg>
